<?xml version="1.0"?>
<svg xmlns="http://www.w3.org/2000/svg" xmlns:xlink="http://www.w3.org/1999/xlink" version="1.1" viewBox="0 0 44 44" enable-background="new 0 0 44 44" width="512px" height="512px"><g><g>
    <g>
      <path d="m33,22c-6.075,0-11,4.925-11,11s4.925,11 11,11 11-4.925 11-11-4.925-11-11-11zm0,20c-4.971,0-9-4.029-9-9s4.029-9 9-9 9,4.029 9,9-4.029,9-9,9z" data-original="#000000" class="active-path" data-old_color="#000000" fill="#43A9FE"/>
    </g>
  </g><g>
    <g>
      <path d="m37,32h-3v-3c0-0.553-0.448-1-1-1s-1,0.447-1,1v3h-3c-0.552,0-1,0.447-1,1s0.448,1 1,1h3v3c0,0.553 0.448,1 1,1s1-0.447 1-1v-3h3c0.552,0 1-0.447 1-1s-0.448-1-1-1z" data-original="#000000" class="active-path" data-old_color="#000000" fill="#43A9FE"/>
    </g>
  </g><g>
    <g>
      <path fill-rule="evenodd" d="m1,2h28c0.552,0 1-0.447 1-1s-0.448-1-1-1h-28c-0.552,0-1,0.447-1,1s0.448,1 1,1zm23,18h-23c-0.552,0-1,0.447-1,1s0.448,1 1,1h23c0.552,0 1-0.447 1-1s-0.448-1-1-1zm5-10h-28c-0.552,0-1,0.447-1,1s0.448,1 1,1h28c0.552,0 1-0.447 1-1s-0.448-1-1-1zm-12,20h-16c-0.552,0-1,0.447-1,1s0.448,1 1,1h16c0.552,0 1-0.447 1-1s-0.448-1-1-1z" data-original="#000000" class="active-path" data-old_color="#000000" fill="#43A9FE"/>
    </g>
  </g></g> </svg>
